<svg  viewBox="0 0 98.1 118" xmlns="http://www.w3.org/2000/svg">
    <style>#logo {fill: none;stroke: #fe4f09}</style>
    <path id="logo" style="stroke-width: 5px" d="m40.9 103.9c-8.9 2.3-18.2-1.2-23.4-8.7-3.2-4.4-4.4-9.9-3.5-15.3.2-.9.4-1.7.6-2.6l.5-1.6 1.4 1c3.3 2.4 6.9 4.2 10.8 5.4l1 .3-.1 1c-.1 1.4.3 2.9 1.1 4.1 1.6 2.3 4.4 3.4 7.1 2.7.6-.2 1.2-.4 1.7-.7l27.4-17.5c1.4-.9 2.3-2.2 2.6-3.8s-.1-3.3-1-4.6c-1.6-2.3-4.4-3.3-7.1-2.6-.6.2-1.2.4-1.7.7l-10.5 6.7c-1.7 1.1-3.6 1.9-5.6 2.4-8.9 2.3-18.2-1.2-23.4-8.7-3.1-4.4-4.4-9.9-3.4-15.3.9-5.2 4.1-9.9 8.6-12.7l27.5-17.5c1.7-1.1 3.6-1.9 5.6-2.5 8.9-2.3 18.2 1.2 23.4 8.7 3.2 4.4 4.4 9.9 3.5 15.3-.2.9-.4 1.7-.7 2.6l-.5 1.6-1.4-1c-3.3-2.4-6.9-4.2-10.8-5.4l-1-.3.1-1c.1-1.4-.3-2.9-1.1-4.1-1.6-2.3-4.4-3.3-7.1-2.6-.6.2-1.2.4-1.7.7l-27.4 17.5c-1.4.9-2.3 2.2-2.6 3.8s.1 3.3 1 4.6c1.6 2.3 4.4 3.3 7.1 2.6.6-.2 1.2-.4 1.7-.7l10.5-6.7c1.7-1.1 3.6-1.9 5.6-2.5 8.9-2.3 18.2 1.2 23.4 8.7 3.2 4.4 4.4 9.9 3.5 15.3-.9 5.2-4.1 9.9-8.6 12.7l-27.5 17.5c-1.7 1.1-3.6 1.9-5.6 2.5" />
</svg>